<?xml version="1.0" encoding="iso-8859-1"?>
<!-- Uploaded to: SVG Repo, www.svgrepo.com, Generator: SVG Repo Mixer Tools -->
<svg fill="#000000" height="800px" width="800px" version="1.1" id="Layer_1" xmlns="http://www.w3.org/2000/svg" xmlns:xlink="http://www.w3.org/1999/xlink"
	 viewBox="0 0 512 512" xml:space="preserve">
<g fill="white">
	<g>
		<g>
			<path d="M316.545,194.207h-121.09c-4.497,0-8.158,3.656-8.158,8.154v2.855c0,4.493,3.661,8.149,8.158,8.149h121.086
				c4.497,0,8.158-3.656,8.158-8.149v-2.855C324.703,197.863,321.038,194.207,316.545,194.207z" />
			<path d="M256,0C114.623,0,0,114.614,0,256c0,141.377,114.623,256,256,256c141.386,0,256-114.623,256-256
				C512,114.614,397.386,0,256,0z M335.986,233.952c2.979,5.285,4.701,11.372,4.701,17.861v141.395
				c0,20.14-16.382,36.523-36.518,36.523h-96.338c-20.136,0-36.518-16.382-36.518-36.523V251.813c0-6.489,1.722-12.576,4.701-17.861
				c-9.207-6.25-15.271-16.798-15.271-28.737v-2.855c0-19.14,15.572-34.712,34.717-34.712h2.678
				c5.059-17.617,17.914-31.937,34.619-38.935v-13.616c0-12.837,10.407-23.243,23.243-23.243s23.243,10.407,23.243,23.243v13.616
				c16.701,6.998,29.56,21.313,34.615,38.935h2.682c19.14,0,34.717,15.572,34.717,34.712l0.004,2.851
				C351.262,217.153,345.198,227.702,335.986,233.952z" />
			<path d="M304.164,241.853h-96.333c-5.493,0-9.96,4.466-9.96,9.96v25.275h33.044v26.559h-33.044v33.867h33.044v26.559h-33.044
				v29.135c0,5.493,4.466,9.964,9.96,9.964h96.333c5.489,0,9.96-4.471,9.96-9.964V251.813
				C314.124,246.319,309.653,241.853,304.164,241.853z"/>
		</g>
	</g>
</g>
</svg>